<?xml version="1.0" encoding="UTF-8" standalone="no"?>
<!-- Created with Inkscape (http://www.inkscape.org/) -->

<svg
   version="1.1"
   id="svg1"
   width="115.50462"
   height="161.53265"
   viewBox="0 0 115.50462 161.53265"
   sodipodi:docname="codo-icon.jpg"
   xmlns:inkscape="http://www.inkscape.org/namespaces/inkscape"
   xmlns:sodipodi="http://sodipodi.sourceforge.net/DTD/sodipodi-0.dtd"
   xmlns="http://www.w3.org/2000/svg"
   xmlns:svg="http://www.w3.org/2000/svg">
  <defs
     id="defs1" />
  <sodipodi:namedview
     id="namedview1"
     pagecolor="#ffffff"
     bordercolor="#000000"
     borderopacity="0.25"
     inkscape:showpageshadow="2"
     inkscape:pageopacity="0.0"
     inkscape:pagecheckerboard="0"
     inkscape:deskcolor="#d1d1d1"
     showgrid="false"
     inkscape:zoom="3.4160155"
     inkscape:cx="27.810178"
     inkscape:cy="91.919957"
     inkscape:window-width="1829"
     inkscape:window-height="964"
     inkscape:window-x="0"
     inkscape:window-y="0"
     inkscape:window-maximized="1"
     inkscape:export-bgcolor="#ffffffff">
    <inkscape:page
       x="0"
       y="0"
       width="115.50462"
       height="161.53265"
       id="page2"
       margin="0"
       bleed="0" />
  </sodipodi:namedview>
  <g
     inkscape:groupmode="layer"
     inkscape:label="Image"
     id="g1"
     transform="translate(-25.357199,-2.1945579)">
    <path
       style="fill:#000000;fill-rule:evenodd;stroke-width:19.4268;stroke-linecap:round;stroke-linejoin:round;stroke-miterlimit:0.9"
       d="M 134.65981,117.68096 98.06747,128.5123 80.210408,111.82619 V 75.819328 l 11.33274,-19.62888 16.613952,-4.451696 9.86262,5.694188 1.76554,1.019331 1.38318,0.798583 1.44527,0.834425 18.24811,-7.404407 V 34.051094 L 126.74366,25.899971 V 13.45484 L 107.24028,2.194558 90.691934,6.6286743 V 19.975262 L 75.577208,11.248771 54.440351,19.561267 v 17.077296 l -15.524815,5.692432 v 20.492756 l -13.558338,5.692432 v 29.083153 l 13.765336,6.416924 v 31.98112 l 15.317817,6.83092 v 10.34987 l 18.271478,10.54905 18.10092,-4.85013 v -10.45986 l 3.612728,-2.08581 9.802503,5.65948 5.87628,3.39267 13.99076,-5.20686 v -12.73035 l 12.93735,-5.58893 V 117.2641 Z"
       id="path1156" />
  </g>
</svg>
