<svg width="47" xmlns="http://www.w3.org/2000/svg" height="47" id="screenshot-a165d96b-f731-806d-8006-3da24ea260a9" viewBox="0 0 47 47" xmlns:xlink="http://www.w3.org/1999/xlink" fill="none" version="1.1"><g id="shape-a165d96b-f731-806d-8006-3da24ea260a9"><g class="frame-container-wrapper"><g class="frame-container-blur"><g class="frame-container-shadows"><g fill="none"><g class="fills" id="fills-a165d96b-f731-806d-8006-3da24ea260a9"><rect rx="0" ry="0" x="0" y="0" width="47" height="47" transform="matrix(1.000000, 0.000000, 0.000000, 1.000000, 0.000000, 0.000000)" class="frame-background"/></g><g class="frame-children"><g id="shape-ee99fb50-718d-80ce-8006-3d9e604ecbce" width="24" height="24" rx="0" ry="0" style="fill: rgb(0, 0, 0);"><g id="shape-ee99fb50-718d-80ce-8006-3d9e604f680f" style="display: none;"><g class="fills" id="fills-ee99fb50-718d-80ce-8006-3d9e604f680f"><rect width="47" height="47" x="0" transform="matrix(1.000000, 0.000000, 0.000000, 1.000000, 0.000000, 0.000000)" style="fill: rgb(144, 140, 170); fill-opacity: 1;" ry="0" fill="none" rx="0" y="0"/></g><g fill="none" id="strokes-7ae089fb-d8a5-80ff-8006-54b4bd502e39-ee99fb50-718d-80ce-8006-3d9e604f680f" class="strokes"><g class="stroke-shape"><rect rx="0" ry="0" x="0" y="0" transform="matrix(1.000000, 0.000000, 0.000000, 1.000000, 0.000000, 0.000000)" width="47" height="47" style="fill: none; stroke-width: 0; stroke: rgb(0, 0, 0); stroke-opacity: 1;"/></g></g></g><g id="shape-ee99fb50-718d-80ce-8006-3d9e604fabda"><g class="fills" id="fills-ee99fb50-718d-80ce-8006-3d9e604fabda"><path d="M36.719,47.000C42.397,47.000,47.000,42.397,47.000,36.719C47.000,31.041,42.397,26.438,36.719,26.438C31.041,26.438,26.438,31.041,26.438,36.719C26.438,42.397,31.041,47.000,36.719,47.000ZM38.188,32.313L38.188,35.250L41.125,35.250C41.936,35.250,42.594,35.908,42.594,36.719C42.594,37.530,41.936,38.188,41.125,38.188L38.188,38.188L38.188,41.125C38.188,41.936,37.530,42.594,36.719,42.594C35.908,42.594,35.250,41.936,35.250,41.125L35.250,38.188L32.313,38.188C31.501,38.188,30.844,37.530,30.844,36.719C30.844,35.908,31.501,35.250,32.313,35.250L35.250,35.250L35.250,32.313C35.250,31.501,35.908,30.844,36.719,30.844C37.530,30.844,38.188,31.501,38.188,32.313ZM32.313,14.688C32.313,19.555,28.367,23.500,23.500,23.500C18.633,23.500,14.688,19.555,14.688,14.688C14.688,9.820,18.633,5.875,23.500,5.875C28.367,5.875,32.313,9.820,32.313,14.688Z" stroke="none" stroke-width="0" style="fill: rgb(144, 140, 170); fill-opacity: 1;"/></g></g><g id="shape-ee99fb50-718d-80ce-8006-3d9e604fabdb"><g class="fills" id="fills-ee99fb50-718d-80ce-8006-3d9e604fabdb"><path d="M5.875,38.188C5.875,41.125,8.813,41.125,8.813,41.125L24.252,41.125C23.753,39.710,23.499,38.220,23.500,36.719C23.500,32.897,25.154,29.262,28.035,26.752C26.665,26.546,25.153,26.441,23.500,26.438C8.813,26.438,5.875,35.250,5.875,38.188Z" stroke="none" stroke-width="0" style="fill: rgb(144, 140, 170); fill-opacity: 1;"/></g></g></g></g></g></g></g></g></g></svg>