<?xml version="1.0" encoding="UTF-8" standalone="no"?>
<svg
   width="800"
   height="800"
   id="screenshot-5b8d81b6-d5a4-80c1-8006-89a66f97ccbd"
   viewBox="778 1560.95 800 800"
   fill="none"
   version="1.1"
   sodipodi:docname="gear.svg"
   inkscape:export-filename="gear.png"
   inkscape:export-xdpi="96"
   inkscape:export-ydpi="96"
   xmlns:inkscape="http://www.inkscape.org/namespaces/inkscape"
   xmlns:sodipodi="http://sodipodi.sourceforge.net/DTD/sodipodi-0.dtd"
   xmlns="http://www.w3.org/2000/svg"
   xmlns:svg="http://www.w3.org/2000/svg">
  <defs
     id="defs1" />
  <sodipodi:namedview
     id="namedview1"
     pagecolor="#ffffff"
     bordercolor="#000000"
     borderopacity="0.25"
     inkscape:showpageshadow="2"
     inkscape:pageopacity="0.0"
     inkscape:pagecheckerboard="0"
     inkscape:deskcolor="#d1d1d1">
    <inkscape:page
       x="0"
       y="0"
       width="800"
       height="800"
       id="page2"
       margin="0"
       bleed="0" />
  </sodipodi:namedview>
  <path
     d="m 1247.4365,1617.4573 c -20.4156,-69.1854 -118.4623,-69.1854 -138.8779,0 l -4.9422,16.8083 c -6.1777,20.9746 -21.5137,38.0349 -41.7178,46.4119 -20.2041,8.3671 -43.1115,7.1464 -62.31433,-3.3113 l -15.3232,-8.4016 c -63.40605,-34.4964 -132.7427,34.8423 -98.19793,98.2009 l 8.3493,15.375 c 22.04455,40.5209 1.14164,90.9804 -43.09324,104.0278 l -16.8014,4.9421 c -69.19184,20.4112 -69.19184,118.4638 0,138.8799 l 16.8014,4.9422 c 20.97654,6.1777 38.0379,21.5132 46.41142,41.7168 8.36758,20.2036 7.14884,43.1106 -3.3162,62.3109 l -8.39773,15.3207 c -34.49634,63.413 34.84031,132.7467 98.19793,98.2009 l 15.37163,-8.3473 c 19.20275,-10.4675 42.11025,-11.6882 62.31435,-3.3113 20.2041,8.377 35.5401,25.4324 41.7178,46.4119 l 4.9422,16.8034 c 20.4156,69.1904 118.4623,69.1904 138.8779,0 l 4.9422,-16.8034 c 6.1777,-20.9795 21.5137,-38.0349 41.7178,-46.4119 20.2041,-8.3671 43.1115,-7.1463 62.3143,3.3113 l 15.3232,8.3967 c 63.4061,34.4964 132.7427,-34.8373 98.1979,-98.1959 l -8.3493,-15.3751 c -10.467,-19.2003 -11.6857,-42.1073 -3.3162,-62.3109 8.3736,-20.2036 25.4349,-35.5391 46.4115,-41.7168 l 16.8014,-4.9422 c 69.1918,-20.4161 69.1918,-118.4687 0,-138.8799 l -16.8014,-4.9421 c -20.9766,-6.1778 -38.0379,-21.5133 -46.4115,-41.7169 -8.3675,-20.2036 -7.1488,-43.1105 3.3162,-62.3109 l 8.3978,-15.3256 c 34.4963,-63.408 -34.8403,-132.7467 -98.198,-98.196 l -15.3716,8.3473 c -19.2028,10.4676 -42.1102,11.6883 -62.3143,3.3113 -20.2041,-8.377 -35.5401,-25.4373 -41.7178,-46.4119 z m -69.4389,488.2863 c -79.9722,0 -144.8081,-64.8314 -144.8081,-144.8006 0,-79.9742 64.8359,-144.8105 144.8081,-144.8105 79.9484,0 144.7541,64.8116 144.7541,144.761 0,79.9396 -64.8057,144.7512 -144.7541,144.7512 z"
     stroke="none"
     stroke-width="0"
     style="fill:#d9d8d5;fill-opacity:1"
     id="path1"
     inkscape:label="gear" />
</svg>
