<?xml version="1.0" encoding="UTF-8" standalone="no"?>
<svg
   width="787.59497"
   height="625.54724"
   id="screenshot-5b8d81b6-d5a4-80c1-8006-89a67805c116"
   viewBox="810 1563.35 787.59497 625.54724"
   fill="none"
   version="1.1"
   sodipodi:docname="svg-path2.svg"
   xmlns:inkscape="http://www.inkscape.org/namespaces/inkscape"
   xmlns:sodipodi="http://sodipodi.sourceforge.net/DTD/sodipodi-0.dtd"
   xmlns="http://www.w3.org/2000/svg"
   xmlns:svg="http://www.w3.org/2000/svg">
  <defs
     id="defs1" />
  <sodipodi:namedview
     id="namedview1"
     pagecolor="#ffffff"
     bordercolor="#000000"
     borderopacity="0.25"
     inkscape:showpageshadow="2"
     inkscape:pageopacity="0.0"
     inkscape:pagecheckerboard="0"
     inkscape:deskcolor="#d1d1d1">
    <inkscape:page
       x="0"
       y="0"
       width="787.59497"
       height="625.54724"
       id="page2"
       margin="0"
       bleed="0" />
  </sodipodi:namedview>
  <g
     id="shape-5b8d81b6-d5a4-80c1-8006-89a67805c116"
     transform="matrix(49.224683,0,0,49.224683,-39061.993,-75350.02)">
    <g
       class="fills"
       id="fills-5b8d81b6-d5a4-80c1-8006-89a67805c116">
      <path
         d="m 820.79004,1573.762 -1.61401,-1.615 c -1.27405,0.4554 -2.69654,0.1358 -3.6532,-0.8208 -0.95667,-0.9568 -1.27637,-2.3792 -0.8208,-3.6532 l -2.06006,-2.0601 C 810.93799,1567.1279 810,1568.85 810,1568.85 c 0,0 3,5.5 8,5.5 0.96045,0 1.91016,-0.2027 2.79004,-0.588 m -5.58008,-9.824 c 0.87988,-0.3854 1.82959,-0.5856 2.79004,-0.588 5,0 8,5.5 8,5.5 0,0 -0.93896,1.7209 -2.64099,3.238 l -2.06201,-2.062 c 0.45556,-1.274 0.13586,-2.6965 -0.8208,-3.6532 -0.95667,-0.9568 -2.37915,-1.2764 -3.6532,-0.8208 z"
         stroke="none"
         stroke-width="0"
         style="fill:#deddda;fill-opacity:1"
         id="path1" />
    </g>
  </g>
  <path
     d="m 1081.9668,1858.698 c -5.4886,38.351 7.4033,77.0564 34.8067,104.4499 27.3935,27.4034 66.094,40.2953 104.4499,34.8068 z m 243.6621,34.8512 -139.2566,-139.3108 c 38.3559,-5.4837 77.0563,7.4082 104.4498,34.8019 27.4034,27.4033 40.3003,66.0988 34.8068,104.4596 z m 156.0915,295.348 -590.69623,-590.6962 34.85107,-34.851 590.69616,590.6962 z"
     stroke="none"
     stroke-width="0"
     style="fill:#deddda;fill-opacity:1"
     id="path1-7" />
</svg>
