<svg width="57" xmlns="http://www.w3.org/2000/svg" height="57" id="screenshot-ee99fb50-718d-80ce-8006-3da0b6fd2544" viewBox="0 0 57 57" xmlns:xlink="http://www.w3.org/1999/xlink" fill="none" version="1.1"><g id="shape-ee99fb50-718d-80ce-8006-3da0b6fd2544" width="24" height="24" rx="0" ry="0" style="fill: rgb(0, 0, 0);"><g id="shape-ee99fb50-718d-80ce-8006-3da0b6fe43c6" style="display: none;"><g class="fills" id="fills-ee99fb50-718d-80ce-8006-3da0b6fe43c6"><rect width="57.000000000000455" height="57" x="0" transform="matrix(1.000000, 0.000000, 0.000000, 1.000000, 0.000000, 0.000000)" style="fill: none;" ry="0" fill="none" rx="0" y="0"/></g></g><g id="shape-ee99fb50-718d-80ce-8006-3da0b6fe8f6c"><g class="fills" id="fills-ee99fb50-718d-80ce-8006-3da0b6fe8f6c"><path d="M28.500,5.344C15.711,5.344,5.344,15.711,5.344,28.500C5.344,41.289,15.711,51.656,28.500,51.656C41.289,51.656,51.656,41.289,51.656,28.500C51.643,15.717,41.283,5.357,28.500,5.344ZZM28.500,48.094C17.679,48.094,8.906,39.321,8.906,28.500C8.906,17.679,17.679,8.906,28.500,8.906C39.321,8.906,48.094,17.679,48.094,28.500C48.081,39.316,39.316,48.081,28.500,48.094ZZM39.188,28.500C39.188,29.484,38.390,30.281,37.406,30.281L30.281,30.281L30.281,37.406C30.281,38.390,29.484,39.188,28.500,39.188C27.516,39.188,26.719,38.390,26.719,37.406L26.719,30.281L19.594,30.281C18.610,30.281,17.813,29.484,17.813,28.500C17.813,27.516,18.610,26.719,19.594,26.719L26.719,26.719L26.719,19.594C26.719,18.610,27.516,17.813,28.500,17.813C29.484,17.813,30.281,18.610,30.281,19.594L30.281,26.719L37.406,26.719C38.390,26.719,39.188,27.516,39.188,28.500ZZ" style="fill: rgb(144, 140, 170); fill-opacity: 1;"/></g></g></g></svg>