<?xml version="1.0" encoding="UTF-8" standalone="no"?>
<!-- Uploaded to: SVG Repo, www.svgrepo.com, Transformed by: SVG Repo Mixer Tools -->

<svg
   fill="#deddda"
   width="603.89758"
   height="753.67377"
   viewBox="0 0 22.646159 28.262767"
   stroke="#deddda"
   stroke-width="0.18"
   version="1.1"
   id="svg1"
   sodipodi:docname="new-file-svgrepo-com.svg"
   xmlns:inkscape="http://www.inkscape.org/namespaces/inkscape"
   xmlns:sodipodi="http://sodipodi.sourceforge.net/DTD/sodipodi-0.dtd"
   xmlns="http://www.w3.org/2000/svg"
   xmlns:svg="http://www.w3.org/2000/svg">
  <defs
     id="defs1" />
  <sodipodi:namedview
     id="namedview1"
     pagecolor="#ffffff"
     bordercolor="#000000"
     borderopacity="0.25"
     inkscape:showpageshadow="2"
     inkscape:pageopacity="0.0"
     inkscape:pagecheckerboard="0"
     inkscape:deskcolor="#d1d1d1">
    <inkscape:page
       x="0"
       y="1.3985843e-16"
       width="22.64616"
       height="28.262768"
       id="page2"
       margin="0"
       bleed="0" />
  </sodipodi:namedview>
  <g
     id="SVGRepo_iconCarrier"
     style="stroke:#deddda;stroke-width:0.192007;stroke-dasharray:none;stroke-opacity:1"
     transform="matrix(0.93610096,0,0,0.93610096,-2.7184342,0.08986874)">
    <path
       d="M 19.5,2 C 19.224,2.004 18.996,2.224 19,2.5 v 4 C 19,7.322 19.678,8 20.5,8 h 4 c 0.668,0.01 0.646,-1 0,-1 h -4 C 20.214,7 20,6.786 20,6.5 v -4 C 20.004,2.218 19.782,1.996 19.5,2 Z M 4.5,0 C 3.678,0 3,0.678 3,1.5 v 27 C 3,29.322 3.678,30 4.5,30 h 21 C 26.322,30 27,29.322 27,28.5 V 7.5 C 27,7.367 26.947,7.24 26.854,7.146 l -7,-7 C 19.76,0.053 19.634,0 19.5,0 Z m 0,1 H 19.293 L 26,7.707 V 28.5 C 26,28.786 25.786,29 25.5,29 H 4.5 C 4.214,29 4,28.786 4,28.5 V 1.5 C 4,1.214 4.214,1 4.5,1 Z"
       id="path1"
       style="stroke:#deddda;stroke-width:0.192007;stroke-dasharray:none;stroke-opacity:1" />
  </g>
</svg>
